<?xml version="1.0" encoding="UTF-8" standalone="no"?>
<!-- Created with Inkscape (http://www.inkscape.org/) -->

<svg
   width="249.99998mm"
   height="151.16847mm"
   viewBox="0 0 249.99998 151.16847"
   version="1.1"
   id="svg5"
   xml:space="preserve"
   inkscape:version="1.2.2 (b0a84865, 2022-12-01)"
   sodipodi:docname="lasvegas.svg"
   xmlns:inkscape="http://www.inkscape.org/namespaces/inkscape"
   xmlns:sodipodi="http://sodipodi.sourceforge.net/DTD/sodipodi-0.dtd"
   xmlns="http://www.w3.org/2000/svg"
   xmlns:svg="http://www.w3.org/2000/svg"><sodipodi:namedview
     id="namedview7"
     pagecolor="#ffffff"
     bordercolor="#000000"
     borderopacity="0.25"
     inkscape:showpageshadow="true"
     inkscape:pageopacity="0"
     inkscape:pagecheckerboard="true"
     inkscape:deskcolor="#cdd1d1"
     inkscape:document-units="mm"
     showgrid="false"
     inkscape:zoom="1.191966"
     inkscape:cx="621.24253"
     inkscape:cy="187.50534"
     inkscape:window-width="2124"
     inkscape:window-height="1387"
     inkscape:window-x="1423"
     inkscape:window-y="25"
     inkscape:window-maximized="0"
     inkscape:current-layer="layer1"
     borderlayer="true"
     showborder="true" /><defs
     id="defs2" /><g
     inkscape:label="Layer 1"
     inkscape:groupmode="layer"
     id="layer1"
     transform="matrix(1.2239724,0,0,1.2239724,-39.957933,-99.870061)"><g
       id="g13802"
       inkscape:label="g13802"
       style="fill:#000000;fill-opacity:0"
       transform="matrix(1.0166512,0,0,1.0166512,-0.54359846,-1.3586591)"><path
         id="path4057"
         style="display:inline;fill:#000000;fill-opacity:0;stroke:#000000;stroke-width:1.60726095;stroke-linecap:round;stroke-dasharray:none;stroke-opacity:1"
         d="m 206.63281,82.345703 c -1.97831,0.05939 -3.42929,2.235556 -2.92409,4.105703 0.22326,3.046531 0.0363,6.14208 0.6246,9.149899 0.74908,2.636231 2.73574,4.635145 4.18371,6.891825 1.5398,2.19295 3.06378,4.85646 2.46344,7.63578 -0.34156,1.71712 -1.77502,2.88222 -3.0284,3.96987 -3.22723,2.558 -7.44792,3.43484 -11.48941,3.40422 -13.22814,0.30625 -26.4572,0.58659 -39.68507,0.91121 -16.6343,0.40104 -33.2709,0.75608 -49.9104,0.82407 -0.58822,-1.10146 -0.2328,-2.41002 -0.41624,-3.60061 -0.23461,-5.40175 0.11397,-10.83069 -0.44443,-16.215181 -1.13107,-6.188183 -6.225159,-11.183395 -12.147145,-12.975223 -2.762204,-0.829159 -5.67774,-1.065691 -8.548607,-0.961613 -1.646238,0.06532 -3.22766,1.192259 -3.586904,2.842566 -0.06221,0.679638 -0.935768,0.0034 -1.369257,0.0669 -3.151951,-0.602394 -6.302044,-1.424454 -9.516716,-1.656843 -1.122501,-0.03 -2.200649,0.745567 -2.380716,1.881872 -0.337139,1.439959 -0.118767,2.932674 -0.272223,4.393634 -0.377043,11.055758 0.487974,22.128938 -0.24082,33.175458 -0.321953,3.43527 -1.472642,7.08704 -4.34437,9.23802 -3.59526,3.03746 -7.830697,5.27197 -12.240387,6.84227 -4.115065,1.56984 -8.447502,3.07186 -11.730098,6.12891 -2.027419,2.00075 -3.017643,4.766 -3.612784,7.49173 -0.951902,3.63402 -1.944826,7.27229 -2.620009,10.9653 -0.02571,1.33424 1.209204,2.26312 2.423788,2.4713 1.96921,0.56802 3.958125,1.16364 5.701036,2.2742 7.070929,3.83764 13.231551,9.12796 20.32007,12.93856 6.244957,3.53448 12.589864,6.90155 19.051417,10.02321 6.709475,3.15738 13.688882,5.91077 21.005085,7.26567 4.65917,0.62655 9.37449,0.26144 14.0595,0.37731 36.70588,0.21682 73.41272,0.0867 110.11879,0.0579 1.83451,-0.0621 3.04941,-2.12517 2.5859,-3.81649 -0.10303,-0.82482 0.11714,-1.85195 0.9992,-2.14923 1.10924,-0.6936 2.52154,-1.64108 2.34264,-3.14365 0.0243,-24.4544 0.66682,-48.90358 0.79974,-73.35651 -0.0977,-2.98023 -1.36634,-5.79536 -2.87006,-8.3222 -1.69309,-2.7247 -3.79534,-5.16369 -5.64066,-7.78359 -4.86087,-6.576157 -9.58003,-13.263068 -14.61927,-19.703466 -0.78749,-0.858921 -1.81424,-1.668349 -3.04085,-1.642836 z"
         inkscape:label="path4057" /><path
         id="path4055"
         style="display:inline;fill:#000000;fill-opacity:0;stroke:#000000;stroke-width:1.60726095;stroke-linecap:round;stroke-dasharray:none;stroke-opacity:1"
         d="m 206.54492,84.494141 c -0.96189,0.308129 -0.7903,1.524787 -0.70347,2.312867 0.26756,2.812729 -0.0432,5.69566 0.61558,8.46057 0.92319,2.581547 3.00934,4.489865 4.34597,6.841632 1.39329,2.03248 2.50177,4.38791 2.43399,6.90519 0.0623,2.00269 -0.89484,3.91592 -2.34262,5.26277 -3.38498,3.60626 -8.41207,5.2212 -13.26323,5.32344 -10.57546,0.24639 -21.15313,0.44164 -31.72841,0.71545 -18.65895,0.4678 -37.31967,0.89856 -55.98435,1.04356 -1.24386,-0.0609 -2.54278,0.18817 -3.74846,-0.17993 -1.1322,-0.40091 -1.83972,-1.58918 -1.7255,-2.77448 -0.34429,-5.66095 -0.0761,-11.33748 -0.36981,-16.99908 -0.13821,-4.757515 -3.27981,-9.037008 -7.316807,-11.361546 -3.315403,-2.053509 -7.324695,-2.561217 -11.121084,-2.439115 -0.815115,-0.02268 -1.82043,0.398402 -1.804688,1.34375 0.101232,0.80267 -0.36335,1.651717 -1.210937,1.777343 -1.259828,0.238289 -2.49841,-0.301932 -3.736382,-0.471541 -2.796455,-0.566775 -5.559178,-1.206421 -8.414009,-1.469865 -0.700911,12.201044 0.27799,24.426824 -0.310345,36.629344 -0.312252,3.9194 -1.339018,8.09801 -4.300086,10.8852 -2.224832,1.98893 -4.728116,3.6621 -7.321364,5.13105 -4.981371,2.73929 -10.721289,3.8508 -15.513834,6.95997 -1.740489,1.10311 -3.139676,2.67159 -3.907886,4.54092 -0.847037,2.29392 -1.346108,4.70153 -1.990436,7.06397 -0.59135,2.30434 -1.1382,4.64625 -1.673627,6.98095 2.139845,0.76835 4.455072,1.1435 6.385822,2.4128 6.88257,3.51518 12.779888,8.61373 19.488771,12.42404 5.302628,3.08065 10.741063,5.9303 16.198364,8.7525 7.480041,3.76362 15.236172,7.17597 23.452088,8.95541 4.07011,0.82413 8.23728,0.46193 12.3577,0.56786 37.47686,0.21292 74.95464,0.0924 112.43171,0.0612 0.39927,-0.006 1.00029,-0.16882 0.81562,-0.69786 -0.0638,-1.46903 -0.24938,-3.31493 1.06914,-4.31776 0.73585,-0.58863 1.57261,-1.04026 2.28711,-1.65625 -0.10956,-16.44952 0.27079,-32.89682 0.48888,-49.34398 0.12363,-8.30066 0.25822,-16.60572 0.26171,-24.90496 -0.55668,-3.60009 -2.44421,-6.86034 -4.65792,-9.64526 -5.8725,-7.83684 -11.5246,-15.837864 -17.46131,-23.62744 -0.51719,-0.61871 -1.14415,-1.449217 -2.02589,-1.462739 z" /></g><path
       style="fill:#ed3c3c;fill-opacity:1;stroke:none;stroke-width:0.0293047;stroke-linecap:round;stroke-dasharray:none;stroke-opacity:1"
       d="m 181.17839,119.58145 v -0.55206 l 0.80766,-0.0176 c 0.44421,-0.01 1.26705,-0.0285 1.82854,-0.0418 0.56148,-0.0133 4.44599,-0.0997 8.63225,-0.19193 4.18625,-0.0922 7.89049,-0.17965 8.23165,-0.19431 4.01122,-0.17234 7.54463,-1.31194 10.1846,-3.28475 0.58749,-0.43901 1.6189,-1.36369 2.06963,-1.85545 0.88695,-0.9677 1.33078,-1.77634 1.53414,-2.79517 0.10155,-0.50878 0.12919,-0.79478 0.12919,-1.33662 0,-1.34419 -0.35496,-2.64994 -1.14165,-4.19969 -0.33041,-0.65089 -0.73802,-1.32002 -1.43726,-2.35936 -0.69139,-1.02769 -0.84155,-1.24104 -1.58251,-2.24852 -0.68555,-0.932135 -0.96395,-1.325695 -1.29806,-1.834996 -0.8313,-1.267217 -1.34277,-2.396522 -1.50414,-3.32109 -0.24516,-1.404632 -0.3406,-2.718566 -0.42802,-5.892674 -0.0509,-1.848066 -0.10534,-2.867856 -0.16852,-3.156504 -0.19805,-0.904837 0.1228,-1.933926 0.82329,-2.640677 0.36444,-0.367689 0.7798,-0.606458 1.25063,-0.718923 0.19281,-0.04606 0.27903,-0.05213 0.57568,-0.04059 0.20395,0.0079 0.41219,0.03132 0.5012,0.05627 0.39239,0.109993 0.85981,0.363413 1.26398,0.685281 0.45268,0.360495 0.70087,0.631193 1.37385,1.498414 2.11747,2.728638 4.53059,5.953 7.6504,10.222321 0.49859,0.68231 0.93326,1.278362 0.96591,1.32456 l 0.0594,0.084 h -0.68474 -0.68474 l -0.70489,-0.962729 c -3.5308,-4.822316 -7.14238,-9.658485 -7.7674,-10.401099 -0.63338,-0.75255 -1.1181,-1.126453 -1.68992,-1.303568 -0.14574,-0.04514 -0.25566,-0.05985 -0.45205,-0.06047 -0.24998,-8.07e-4 -0.26702,0.0029 -0.46521,0.09996 -0.41293,0.202289 -0.71615,0.601495 -0.84002,1.105923 -0.0682,0.27757 -0.0914,0.796181 -0.0537,1.196886 0.12501,1.328183 0.14728,1.754829 0.18416,3.527851 0.054,2.597723 0.13526,3.738751 0.34867,4.897639 0.14404,0.782187 0.24463,1.080775 0.62253,1.847922 0.47191,0.958002 0.89056,1.599073 2.16881,3.321093 0.84377,1.1367 1.26544,1.73447 1.53781,2.18007 0.10662,0.17442 0.33582,0.53667 0.50934,0.80502 1.27689,1.9746 1.92721,3.57858 2.13982,5.27772 0.0569,0.45466 0.077,1.30468 0.0414,1.74878 -0.099,1.23456 -0.54174,2.36178 -1.35647,3.45369 -0.2823,0.37833 -1.57986,1.68897 -2.09652,2.11765 -1.57759,1.30893 -3.38171,2.30189 -5.44112,2.99472 -1.33323,0.44852 -2.80821,0.77508 -4.27882,0.94733 -0.9915,0.11614 -1.52006,0.13706 -5.89047,0.23318 -0.6681,0.0147 -1.72645,0.0383 -2.3519,0.0524 -0.62545,0.0141 -2.75379,0.0602 -4.72965,0.10253 -4.78341,0.10239 -5.90976,0.12712 -7.12031,0.15635 -0.56149,0.0136 -1.07613,0.0247 -1.14365,0.0249 l -0.12276,2.5e-4 z"
       id="path9139" /><path
       style="fill:#ed3c3c;fill-opacity:1;stroke:none;stroke-width:0.0293047;stroke-linecap:round;stroke-dasharray:none;stroke-opacity:1"
       d="m 118.65919,120.87604 v -0.55611 l 0.41998,-0.0151 c 0.23099,-0.008 1.12943,-0.0215 1.99653,-0.0295 4.28636,-0.0391 13.57615,-0.19324 20.99911,-0.34836 1.3433,-0.0281 3.04714,-0.0631 3.7863,-0.0778 0.73917,-0.0147 1.42245,-0.0298 1.5184,-0.0336 l 0.17445,-0.007 v 0.5592 0.5592 l -0.74304,0.0172 c -0.40868,0.009 -1.28967,0.0286 -1.95776,0.0424 -0.6681,0.0139 -1.77298,0.037 -2.45528,0.0514 -7.07823,0.14915 -13.40673,0.25534 -22.4529,0.37673 l -1.28579,0.0173 z"
       id="path9143" /><path
       style="fill:#ed3c3c;fill-opacity:1;stroke:none;stroke-width:0.0293047;stroke-linecap:round;stroke-dasharray:none;stroke-opacity:1"
       d="m 108.40907,121.50238 c -0.28916,-0.0275 -0.72144,-0.11391 -0.88984,-0.1779 -0.46628,-0.17717 -0.89231,-0.57348 -1.13317,-1.05408 -0.0442,-0.0882 -0.1109,-0.26264 -0.14825,-0.38768 -0.0615,-0.20595 -0.0699,-0.28693 -0.0887,-0.86055 -0.0115,-0.34826 -0.0389,-1.017 -0.0609,-1.48609 -0.0475,-1.01075 -0.0931,-2.51735 -0.0931,-3.07698 l -0.006,-0.53532 0.31593,-0.0162 c 0.15395,-0.008 0.35999,0.0164 0.50954,0.0166 l 0.26492,-0.0289 0.0385,1.0017 c 0.017,0.44198 0.0299,0.96098 0.0432,1.15288 0.0133,0.1919 0.0348,0.84901 0.0478,1.46025 0.025,1.17853 0.0492,1.45412 0.16716,1.90382 0.0695,0.26486 0.13179,0.42017 0.30712,0.7652 l 0.10862,0.21374 2.0676,-0.0146 c 1.13718,-0.008 3.35856,-0.0257 4.93641,-0.0393 1.57784,-0.0136 3.09268,-0.0246 3.36632,-0.0246 l 0.49751,1e-5 v 0.55266 0.55266 l -0.91103,0.0165 c -0.50107,0.009 -2.24852,0.0276 -3.88323,0.0412 -1.6347,0.0136 -3.47809,0.0298 -4.09644,0.036 -0.61834,0.006 -1.23008,10e-4 -1.35941,-0.011 z"
       id="path9145"
       sodipodi:nodetypes="ssssssscsscssssscssscccsssss" /><path
       style="fill:#3376f2;fill-opacity:1;stroke:none;stroke-width:0.0503679;stroke-linecap:round;stroke-dasharray:none;stroke-opacity:1"
       d="m 55.37683,142.96163 v -0.59567 l 0.544168,-0.25361 c 3.066331,-1.42908 5.718135,-3.08938 8.362221,-5.2356 0.878682,-0.71323 1.266406,-1.07842 1.720715,-1.62069 1.509547,-1.80181 2.49324,-4.22052 2.917723,-7.17412 0.15044,-1.04677 0.25091,-2.65023 0.367407,-5.86367 0.07548,-2.082 0.07189,-10.22344 -0.0064,-14.57035 -0.07564,-4.1982 -0.07856,-11.700491 -0.0052,-13.459804 0.02851,-0.684095 0.06938,-1.963443 0.09081,-2.842995 0.05016,-2.058154 0.148568,-2.70193 0.48853,-3.196048 0.175408,-0.25495 0.453645,-0.480549 0.782376,-0.634368 0.251558,-0.117708 0.291463,-0.122922 0.907249,-0.118542 1.279136,0.0091 2.877512,0.27203 7.788435,1.281188 0.899809,0.184904 1.722886,0.346617 1.829058,0.359362 0.10617,0.01274 0.309483,0.06333 0.451805,0.112418 0.803465,0.277106 1.281705,0.07158 1.453861,-0.624793 0.223067,-0.902316 0.861418,-1.656069 1.768164,-2.087813 0.549262,-0.261529 0.799766,-0.312792 1.745453,-0.357186 2.325095,-0.109149 5.12537,0.172562 7.351805,0.739602 5.571321,1.418931 10.28723,5.572768 12.1488,10.700809 0.33168,0.913681 0.59422,2.014933 0.6669,2.79738 0.22953,2.47117 0.25249,3.27693 0.3091,10.85122 l 0.0207,2.76525 h -0.54627 -0.54628 l -0.0299,-4.23139 c -0.038,-5.37956 -0.1209,-8.15564 -0.27739,-9.29438 -0.50989,-3.710137 -2.8164,-7.344278 -6.215103,-9.792525 -0.628302,-0.452596 -1.757424,-1.135198 -2.465408,-1.490445 -1.954124,-0.980523 -4.014184,-1.551933 -6.565919,-1.821224 -1.499984,-0.158297 -3.970637,-0.189994 -4.606162,-0.05909 -0.72712,0.149765 -1.364094,0.649428 -1.574865,1.235374 -0.03076,0.08551 -0.07061,0.385359 -0.08856,0.666327 -0.0368,0.576103 -0.112787,0.781147 -0.374686,1.011097 -0.221571,0.194542 -0.538247,0.249945 -1.249101,0.218534 -0.410031,-0.01812 -0.751375,-0.06516 -1.177177,-0.162215 -1.451297,-0.330816 -5.934862,-1.22022 -7.285173,-1.445158 -1.434661,-0.23899 -3.387521,-0.469616 -3.449733,-0.407403 -0.06983,0.06983 -0.218508,3.653169 -0.286936,6.915352 -0.05259,2.507381 -0.0301,8.832056 0.0493,13.859596 0.08895,5.63278 0.04914,12.66283 -0.09019,15.92521 -0.178587,4.18143 -1.058552,7.43825 -2.660914,9.84823 -0.678251,1.02011 -1.288414,1.68465 -2.379248,2.59128 -2.817232,2.3415 -6.238938,4.47544 -9.317472,5.81084 l -0.566377,0.24569 z"
       id="path13804" /><path
       style="fill:#3376f2;fill-opacity:1;stroke:none;stroke-width:0.0239246;stroke-linecap:round;stroke-dasharray:none;stroke-opacity:1"
       d=""
       id="path13806" /><path
       style="fill:#3376f2;fill-opacity:1;stroke:none;stroke-width:0.0532555;stroke-linecap:round;stroke-dasharray:none;stroke-opacity:1"
       d="m 96.17073,201.59724 c -4.025098,-1.27516 -6.806175,-2.31834 -10.544392,-3.9552 -2.609148,-1.14247 -3.796737,-1.70709 -7.579892,-3.60372 -4.964805,-2.48904 -8.629354,-4.43109 -13.602829,-7.20891 -0.98164,-0.54827 -2.16524,-1.20867 -2.630228,-1.46755 -2.574843,-1.43355 -4.76437,-2.84877 -10.649367,-6.88329 -3.788648,-2.59734 -5.994228,-4.01487 -8.091,-5.20008 -0.516651,-0.29205 -1.14227,-0.65046 -1.390263,-0.79648 -0.247993,-0.14602 -0.654856,-0.36878 -0.90414,-0.49501 l -0.579536,-0.28003 0.03789,-0.57668 -0.06062,-0.64487 0.583482,0.28566 c 0.239994,0.1175 0.624679,0.32818 0.857172,0.46349 0.232493,0.13531 0.767776,0.43007 1.189518,0.65502 2.420652,1.29113 4.924033,2.88903 9.824558,6.27099 4.287821,2.95913 6.395594,4.32961 8.759593,5.69554 4.397139,2.54067 8.315248,4.67073 14.630639,7.95386 7.445343,3.87055 13.515773,6.51138 19.163081,8.33656 0.658732,0.21289 1.214246,0.40171 1.234479,0.41958 0.02023,0.0179 0.0308,0.2756 0.02348,0.57273 l -0.01329,0.54023 z"
       id="path13810"
       sodipodi:nodetypes="ssssssssscccssssssssscs" /><path
       style="fill:#3376f2;fill-opacity:1;stroke:none;stroke-width:0.0532555;stroke-linecap:round;stroke-dasharray:none;stroke-opacity:1"
       d="m 39.774217,171.53206 c -0.883142,-0.3729 -2.738973,-0.98561 -3.895338,-1.28605 -1.078595,-0.28025 -1.818848,-0.94096 -1.921337,-1.7149 -0.06113,-0.46165 0.882008,-4.63367 2.048381,-9.06108 0.234788,-0.89122 0.533197,-2.05369 0.663132,-2.58326 0.714023,-2.91009 1.584562,-4.83286 2.892079,-6.38776 0.809405,-0.96254 2.370033,-2.17341 4.052024,-3.14389 0.731491,-0.42206 2.432456,-1.2629 3.334752,-1.64847 0.87284,-0.37298 2.556326,-1.03666 4.109729,-1.62017 1.344641,-0.50509 3.305818,-1.2779 3.910116,-1.54079 l 0.503004,-0.22498 -0.01076,0.6159 c -0.0094,0.54084 0.156794,0.50418 0.06729,0.55208 -0.167164,0.0895 -2.20196,0.89176 -3.788619,1.49228 -4.711853,1.78336 -6.769593,2.7356 -8.849275,4.09508 -1.763052,1.1525 -3.016656,2.52221 -3.860112,4.21764 -0.335595,0.67458 -0.793251,2.0055 -1.187079,3.45218 -0.596615,2.19158 -1.635176,6.30314 -2.206703,8.73611 -0.701696,2.98709 -0.752245,3.21594 -0.7182,3.25147 0.05575,0.0582 1.051241,0.38797 2.449057,0.81133 1.687061,0.51096 2.802518,0.89507 2.925242,1.00732 0.02018,0.0185 0.03075,0.29664 0.02349,0.61817 l -0.0132,0.5846 z"
       id="path13812"
       sodipodi:nodetypes="sssssssssscssssssssssscs" /><path
       style="fill:#fab721;fill-opacity:1;stroke:none;stroke-width:0.266731;stroke-linecap:round;stroke-dasharray:none;stroke-opacity:1"
       d="m 120.50866,203.56203 c -9.0568,-0.0811 -16.73421,-0.13513 -16.76656,-0.16184 -0.0323,-0.0267 -0.0106,-0.4619 -0.0106,-0.72179 0,-0.15024 -0.045,-0.43952 0.0427,-0.3973 0.0837,0.0403 0.75974,0.14007 1.5869,0.14438 0.74933,0.004 28.96049,0.28024 62.80637,0.28865 51.82901,0.0128 61.59941,-0.0357 61.92733,-0.30758 0.2926,-0.24263 0.38934,-0.72105 0.38934,-1.92543 0,-0.88141 0.0943,-1.85068 0.20963,-2.15394 0.1153,-0.30325 0.8353,-0.99025 1.60002,-1.52666 l 1.39038,-0.9753 0.31576,-24.54164 c 0.66301,-51.52899 0.66158,-51.16872 0.20946,-53.05256 -0.52805,-2.20016 -1.69998,-4.66597 -3.32963,-7.00569 -0.9081,-1.30378 -1.44942,-1.82881 -1.60321,-1.99986 -0.13201,-0.14683 0.84563,-0.77029 0.89686,-0.70923 0.14401,0.17163 0.48023,0.79963 1.47431,2.23761 1.38162,1.99858 3.11716,5.56433 3.51239,7.21636 0.32403,1.35442 0.33685,13.49337 0.0334,31.59829 -0.11931,7.11808 -0.28724,20.40334 -0.37318,29.52281 -0.12645,13.41817 -0.21768,16.67918 -0.47829,17.09636 -0.17712,0.28353 -0.81059,0.85164 -1.4077,1.26247 -1.2741,0.8766 -1.76347,1.86322 -1.58481,3.19515 0.14794,1.103 -0.34965,2.26538 -1.16185,2.71412 -0.41311,0.22824 -10.53289,0.29745 -46.86944,0.32055 -25.48841,0.0162 -53.75268,-0.0369 -62.80948,-0.11793 z"
       id="path13814"
       sodipodi:nodetypes="sssssssssscssssssssssssssss" /><path
       style="fill:#ed3c3c;fill-opacity:1;stroke:none;stroke-width:0.011613;stroke-linecap:round;stroke-dasharray:none;stroke-opacity:1"
       d="m 228.9714,108.81665 c -1.62207,-2.17323 -3.42671,-4.6248 -6.39896,-8.6929 -0.72848,-0.997062 -1.57385,-2.153567 -1.87861,-2.570015 -0.30476,-0.416447 -0.55779,-0.763267 -0.56229,-0.77071 -0.007,-0.01116 0.11356,-0.01353 0.68728,-0.01353 h 0.69547 l 0.42353,0.581234 c 2.44493,3.355281 3.4332,4.706881 4.57754,6.260421 0.31328,0.4253 0.61527,0.8378 0.67108,0.91666 0.47239,0.66743 1.02508,1.40916 2.20178,2.95482 0.2766,0.36333 0.58905,0.77426 0.69432,0.91318 l 0.1914,0.25257 -0.47067,0.31842 c -0.25888,0.17513 -0.47326,0.31842 -0.47641,0.31842 -0.003,0 -0.16311,-0.21086 -0.35546,-0.46857 z"
       id="path9137" /><path
       style="fill:#3376f2;fill-opacity:1;stroke:none;stroke-width:2.0333;stroke-linecap:round;stroke-dasharray:none;stroke-opacity:1"
       id="path19976"
       sodipodi:type="arc"
       sodipodi:cx="70.684921"
       sodipodi:cy="88.431252"
       sodipodi:rx="0.1647884"
       sodipodi:ry="0.16161938"
       sodipodi:start="2.1830241"
       sodipodi:end="5.7491958"
       sodipodi:arc-type="slice"
       d="m 70.590219,88.563516 a 0.1647884,0.16161938 0 0 1 -0.06574,-0.169135 0.1647884,0.16161938 0 0 1 0.135505,-0.122887 0.1647884,0.16161938 0 0 1 0.166785,0.0775 l -0.141847,0.08226 z" /><path
       style="fill:#3376f2;fill-opacity:1;stroke:none;stroke-width:0.00305709;stroke-linecap:round;stroke-dasharray:none;stroke-opacity:1"
       d="m 103.66688,203.39465 c -0.30886,-0.0375 -0.52645,-0.0658 -0.57024,-0.074 -1.29271,-0.24304 -2.41773,-0.48881 -3.670843,-0.80194 -0.965223,-0.24119 -1.830803,-0.44502 -2.870007,-0.79554 l -0.292464,-0.0986 0.09613,-0.51579 c 0.07576,-0.40646 -0.409708,-0.70805 -0.407636,-0.70805 0.0016,0 0.57516,0.15236 0.623626,0.16707 1.75964,0.53461 3.634194,1.02437 5.334874,1.39384 0.47179,0.10249 1.20184,0.2258 1.77611,0.29999 l 0.092,0.0182 -0.008,0.55863 -0.0123,0.56319 -0.0316,-2.7e-4 c -0.004,-3e-5 -0.0311,-0.003 -0.06,-0.007 z m 0.0687,-2.26995 c 0,-0.32327 2.7e-4,-0.45592 8.1e-4,-0.29477 2.6e-4,0.16114 2.6e-4,0.42564 0,0.58776 -2.7e-4,0.16213 -8.1e-4,0.0303 -8.1e-4,-0.29299 z"
       id="path13808"
       sodipodi:nodetypes="cssscsscsscccsccscss" /><circle
       style="fill:#ffffff;fill-opacity:1;stroke:#212222;stroke-width:0.92524;stroke-linecap:round;stroke-dasharray:none;stroke-opacity:1"
       id="path23279"
       cx="229.58624"
       cy="108.6707"
       r="1.5946344" /><path
       style="fill:#ed3c3c;fill-opacity:1;stroke:none;stroke-width:0.0293722;stroke-linecap:round;stroke-dasharray:none;stroke-opacity:1"
       d="m 147.46151,120.37139 v -0.56347 l 2.09661,-0.045 c 1.15315,-0.0248 2.55814,-0.0564 3.1222,-0.0704 3.88726,-0.0963 18.6472,-0.43989 23.7313,-0.55239 2.22059,-0.0491 4.21561,-0.0956 4.43339,-0.10319 l 0.42967,-0.0122 -0.0338,0.55071 0.0371,0.5591 -0.56285,0.009 c -0.28928,0.005 -1.07493,0.0276 -1.74609,0.042 -3.37633,0.0721 -7.96808,0.18098 -13.04703,0.30946 -1.40703,0.0356 -3.86666,0.0956 -5.84195,0.14258 -0.90679,0.0216 -2.36144,0.0563 -3.23255,0.0772 -0.87109,0.0209 -3.13777,0.0725 -5.03705,0.11457 -1.89927,0.0421 -3.65478,0.083 -3.90112,0.0909 l -0.44789,0.0144 z"
       id="path9141"
       sodipodi:nodetypes="ccsssscccssssssscc" /></g></svg>
