<?xml version="1.0" encoding="UTF-8" standalone="no"?>
<!-- Created with Inkscape (http://www.inkscape.org/) -->

<svg
   width="233.89166mm"
   height="131.49791mm"
   viewBox="0 0 233.89166 131.49791"
   version="1.1"
   id="svg5"
   xml:space="preserve"
   inkscape:version="1.2.2 (b0a84865, 2022-12-01)"
   sodipodi:docname="lasvegas.svg"
   xmlns:inkscape="http://www.inkscape.org/namespaces/inkscape"
   xmlns:sodipodi="http://sodipodi.sourceforge.net/DTD/sodipodi-0.dtd"
   xmlns="http://www.w3.org/2000/svg"
   xmlns:svg="http://www.w3.org/2000/svg"><sodipodi:namedview
     id="namedview7"
     pagecolor="#ffffff"
     bordercolor="#000000"
     borderopacity="0.25"
     inkscape:showpageshadow="true"
     inkscape:pageopacity="0"
     inkscape:pagecheckerboard="true"
     inkscape:deskcolor="#cdd1d1"
     inkscape:document-units="mm"
     showgrid="false"
     inkscape:zoom="1.7578512"
     inkscape:cx="445.99907"
     inkscape:cy="240.35027"
     inkscape:window-width="2124"
     inkscape:window-height="1387"
     inkscape:window-x="1423"
     inkscape:window-y="25"
     inkscape:window-maximized="0"
     inkscape:current-layer="layer1"
     borderlayer="true"
     showborder="true" /><defs
     id="defs2" /><g
     inkscape:label="Layer 1"
     inkscape:groupmode="layer"
     id="layer1"
     transform="translate(-17.468417,-78.316907)"><g
       id="g13802"
       inkscape:label="g13802"
       style="fill:#000000;fill-opacity:0"><path
         id="path4057"
         style="display:inline;fill:#000000;stroke:#374151;stroke-width:1.5;stroke-linecap:round;stroke-dasharray:none;stroke-opacity:1;fill-opacity:0"
         d="m 206.63281,82.345703 c -1.97831,0.05939 -3.42929,2.235556 -2.92409,4.105703 0.22326,3.046531 0.0363,6.14208 0.6246,9.149899 0.74908,2.636231 2.73574,4.635145 4.18371,6.891825 1.5398,2.19295 3.06378,4.85646 2.46344,7.63578 -0.34156,1.71712 -1.77502,2.88222 -3.0284,3.96987 -3.22723,2.558 -7.44792,3.43484 -11.48941,3.40422 -13.22814,0.30625 -26.4572,0.58659 -39.68507,0.91121 -16.6343,0.40104 -33.2709,0.75608 -49.9104,0.82407 -0.58822,-1.10146 -0.2328,-2.41002 -0.41624,-3.60061 -0.23461,-5.40175 0.11397,-10.83069 -0.44443,-16.215181 -1.13107,-6.188183 -6.225159,-11.183395 -12.147145,-12.975223 -2.762204,-0.829159 -5.67774,-1.065691 -8.548607,-0.961613 -1.646238,0.06532 -3.22766,1.192259 -3.586904,2.842566 -0.06221,0.679638 -0.935768,0.0034 -1.369257,0.0669 -3.151951,-0.602394 -6.302044,-1.424454 -9.516716,-1.656843 -1.122501,-0.03 -2.200649,0.745567 -2.380716,1.881872 -0.337139,1.439959 -0.118767,2.932674 -0.272223,4.393634 -0.377043,11.055758 0.487974,22.128938 -0.24082,33.175458 -0.321953,3.43527 -1.472642,7.08704 -4.34437,9.23802 -3.59526,3.03746 -7.830697,5.27197 -12.240387,6.84227 -4.115065,1.56984 -8.447502,3.07186 -11.730098,6.12891 -2.027419,2.00075 -3.017643,4.766 -3.612784,7.49173 -0.951902,3.63402 -1.944826,7.27229 -2.620009,10.9653 -0.02571,1.33424 1.209204,2.26312 2.423788,2.4713 1.96921,0.56802 3.958125,1.16364 5.701036,2.2742 7.070929,3.83764 13.231551,9.12796 20.32007,12.93856 6.244957,3.53448 12.589864,6.90155 19.051417,10.02321 6.709475,3.15738 13.688882,5.91077 21.005085,7.26567 4.65917,0.62655 9.37449,0.26144 14.0595,0.37731 36.70588,0.21682 73.41272,0.0867 110.11879,0.0579 1.83451,-0.0621 3.04941,-2.12517 2.5859,-3.81649 -0.10303,-0.82482 0.11714,-1.85195 0.9992,-2.14923 1.10924,-0.6936 2.52154,-1.64108 2.34264,-3.14365 0.0243,-24.4544 0.66682,-48.90358 0.79974,-73.35651 -0.0977,-2.98023 -1.36634,-5.79536 -2.87006,-8.3222 -1.69309,-2.7247 -3.79534,-5.16369 -5.64066,-7.78359 -4.86087,-6.576157 -9.58003,-13.263068 -14.61927,-19.703466 -0.78749,-0.858921 -1.81424,-1.668349 -3.04085,-1.642836 z"
         inkscape:label="path4057" /><path
         id="path4055"
         style="display:inline;fill:#000000;stroke:#374151;stroke-width:1.5;stroke-linecap:round;stroke-dasharray:none;stroke-opacity:1;fill-opacity:0"
         d="m 206.54492,84.494141 c -0.96189,0.308129 -0.7903,1.524787 -0.70347,2.312867 0.26756,2.812729 -0.0432,5.69566 0.61558,8.46057 0.92319,2.581547 3.00934,4.489865 4.34597,6.841632 1.39329,2.03248 2.50177,4.38791 2.43399,6.90519 0.0623,2.00269 -0.89484,3.91592 -2.34262,5.26277 -3.38498,3.60626 -8.41207,5.2212 -13.26323,5.32344 -10.57546,0.24639 -21.15313,0.44164 -31.72841,0.71545 -18.65895,0.4678 -37.31967,0.89856 -55.98435,1.04356 -1.24386,-0.0609 -2.54278,0.18817 -3.74846,-0.17993 -1.1322,-0.40091 -1.83972,-1.58918 -1.7255,-2.77448 -0.34429,-5.66095 -0.0761,-11.33748 -0.36981,-16.99908 -0.13821,-4.757515 -3.27981,-9.037008 -7.316807,-11.361546 -3.315403,-2.053509 -7.324695,-2.561217 -11.121084,-2.439115 -0.815115,-0.02268 -1.82043,0.398402 -1.804688,1.34375 0.101232,0.80267 -0.36335,1.651717 -1.210937,1.777343 -1.259828,0.238289 -2.49841,-0.301932 -3.736382,-0.471541 -2.796455,-0.566775 -5.559178,-1.206421 -8.414009,-1.469865 -0.700911,12.201044 0.27799,24.426824 -0.310345,36.629344 -0.312252,3.9194 -1.339018,8.09801 -4.300086,10.8852 -2.224832,1.98893 -4.728116,3.6621 -7.321364,5.13105 -4.981371,2.73929 -10.721289,3.8508 -15.513834,6.95997 -1.740489,1.10311 -3.139676,2.67159 -3.907886,4.54092 -0.847037,2.29392 -1.346108,4.70153 -1.990436,7.06397 -0.59135,2.30434 -1.1382,4.64625 -1.673627,6.98095 2.139845,0.76835 4.455072,1.1435 6.385822,2.4128 6.88257,3.51518 12.779888,8.61373 19.488771,12.42404 5.302628,3.08065 10.741063,5.9303 16.198364,8.7525 7.480041,3.76362 15.236172,7.17597 23.452088,8.95541 4.07011,0.82413 8.23728,0.46193 12.3577,0.56786 37.47686,0.21292 74.95464,0.0924 112.43171,0.0612 0.39927,-0.006 1.00029,-0.16882 0.81562,-0.69786 -0.0638,-1.46903 -0.24938,-3.31493 1.06914,-4.31776 0.73585,-0.58863 1.57261,-1.04026 2.28711,-1.65625 -0.10956,-16.44952 0.27079,-32.89682 0.48888,-49.34398 0.12363,-8.30066 0.25822,-16.60572 0.26171,-24.90496 -0.55668,-3.60009 -2.44421,-6.86034 -4.65792,-9.64526 -5.8725,-7.83684 -11.5246,-15.837864 -17.46131,-23.62744 -0.51719,-0.61871 -1.14415,-1.449217 -2.02589,-1.462739 z" /></g><path
       style="fill:#ed3c3c;fill-opacity:1;stroke:none;stroke-width:0.108944;stroke-linecap:round;stroke-dasharray:none;stroke-opacity:1"
       d="m 603.34838,156.57942 v -2.05234 l 3.00257,-0.0653 c 1.65141,-0.0359 4.71043,-0.10592 6.79782,-0.15556 2.08738,-0.0496 16.52854,-0.37073 32.09146,-0.71354 15.56292,-0.34281 29.33391,-0.66787 30.60219,-0.72236 14.91224,-0.64072 28.0481,-4.87731 37.86254,-12.21146 2.18406,-1.63209 6.01847,-5.06971 7.6941,-6.89789 3.29734,-3.59752 4.94734,-6.60377 5.70334,-10.39138 0.37754,-1.89145 0.4803,-2.95471 0.4803,-4.96906 0,-4.99718 -1.3196,-9.85148 -4.24424,-15.61286 -1.22834,-2.41977 -2.74369,-4.907342 -5.34317,-8.771206 -2.57034,-3.820565 -3.12858,-4.613744 -5.88319,-8.359154 -2.54863,-3.465339 -3.58362,-4.928449 -4.82569,-6.821838 -3.09046,-4.711038 -4.99191,-8.909368 -5.59183,-12.346567 -0.91143,-5.221892 -1.26623,-10.106606 -1.59122,-21.906749 -0.18922,-6.870416 -0.39162,-10.661613 -0.6265,-11.734697 -0.73626,-3.363845 0.45651,-7.189609 3.06069,-9.817043 1.35484,-1.366933 2.89899,-2.254584 4.64937,-2.672689 0.71678,-0.171215 1.03732,-0.193815 2.14016,-0.150891 0.75819,0.02951 1.53235,0.116428 1.86328,0.209198 1.45873,0.408914 3.19643,1.351033 4.69899,2.54762 1.68288,1.340185 2.60558,2.346537 5.10747,5.570541 7.87195,10.144049 16.84301,22.131016 28.44129,38.002751 1.8536,2.536571 3.46951,4.752467 3.59091,4.924214 l 0.22073,0.312268 h -2.54562 -2.54561 l -2.62051,-3.579064 C 732.41182,50.266802 718.9853,32.287743 716.66171,29.52698 c -2.35467,-2.797696 -4.15667,-4.187727 -6.28246,-4.846175 -0.54181,-0.16782 -0.95045,-0.222484 -1.68056,-0.224807 -0.92933,-0.003 -0.99268,0.01065 -1.72948,0.371598 -1.53511,0.752033 -2.66238,2.236134 -3.12287,4.111406 -0.25339,1.031901 -0.33992,2.959901 -0.1997,4.449574 0.46476,4.937684 0.54756,6.523795 0.68465,13.115224 0.20087,9.65736 0.50286,13.899273 1.29623,18.207584 0.53549,2.907876 0.90944,4.017914 2.31432,6.869879 1.7544,3.561491 3.31078,5.944752 8.06284,12.346567 3.13683,4.225823 4.70442,6.448114 5.71701,8.104684 0.39634,0.648401 1.24842,1.995131 1.89353,2.992736 4.74697,7.34083 7.16464,13.30384 7.95505,19.62059 0.21151,1.69027 0.28631,4.85033 0.1539,6.50133 -0.3681,4.5896 -2.014,8.78021 -5.04286,12.8395 -1.04948,1.40651 -5.87331,6.27897 -7.79405,7.87262 -5.86489,4.86611 -12.57194,8.55759 -20.22804,11.13324 -4.95645,1.66745 -10.43988,2.88148 -15.90708,3.52185 -3.686,0.43174 -5.65099,0.50952 -21.89855,0.86685 -2.48372,0.0546 -6.41829,0.1422 -8.74348,0.19462 -2.32519,0.0524 -10.23756,0.22395 -17.58305,0.38118 -17.78292,0.38064 -21.97026,0.47258 -26.47065,0.58125 -2.08739,0.0504 -4.00063,0.092 -4.25164,0.0926 l -0.45639,9.4e-4 z"
       id="path9139"
       transform="matrix(0.26458333,0,0,0.26458333,19.109726,77.530983)" /><path
       style="fill:#ed3c3c;fill-opacity:1;stroke:none;stroke-width:0.108944;stroke-linecap:round;stroke-dasharray:none;stroke-opacity:1"
       d="m 478.34539,159.51611 v -2.09477 l 7.75864,-0.16733 c 4.26726,-0.092 9.46651,-0.20985 11.55389,-0.26181 14.385,-0.35812 69.00514,-1.63537 87.81916,-2.0536 8.21744,-0.18267 15.60015,-0.35529 16.40604,-0.38361 l 1.59001,-0.0453 -0.12475,2.04733 0.13722,2.07852 -2.08289,0.0342 c -1.07046,0.0176 -3.9778,0.10277 -6.46153,0.15603 -12.49427,0.26794 -29.48632,0.67281 -48.28132,1.15043 -5.20682,0.13231 -14.30886,0.3555 -21.6185,0.53009 -3.35567,0.0802 -8.73868,0.20933 -11.96224,0.28706 -3.22356,0.0777 -11.61154,0.26939 -18.63995,0.42592 -7.02842,0.15653 -13.52478,0.30867 -14.43636,0.33807 l -1.65742,0.0535 z"
       id="path9141"
       transform="matrix(0.26458333,0,0,0.26458333,19.109726,77.530983)"
       sodipodi:nodetypes="ccsssscccssssssscc" /><path
       style="fill:#ed3c3c;fill-opacity:1;stroke:none;stroke-width:0.108944;stroke-linecap:round;stroke-dasharray:none;stroke-opacity:1"
       d="m 370.92546,161.39223 v -2.06743 l 1.56133,-0.056 c 0.85874,-0.0308 4.1988,-0.0801 7.42236,-0.10951 15.93507,-0.14545 50.47103,-0.71838 78.06681,-1.29507 4.99387,-0.10437 11.3281,-0.23445 14.07605,-0.28908 2.74795,-0.0546 5.28812,-0.11087 5.64483,-0.12499 l 0.64855,-0.0257 v 2.0789 2.0789 l -2.76236,0.064 c -1.5193,0.0352 -4.7945,0.10619 -7.27823,0.15775 -2.48373,0.0516 -6.59124,0.13749 -9.12781,0.19095 -26.31417,0.55451 -49.84117,0.94927 -83.47144,1.40055 l -4.78009,0.0642 z"
       id="path9143"
       transform="matrix(0.26458333,0,0,0.26458333,19.109726,77.530983)" /><path
       style="fill:#ed3c3c;fill-opacity:1;stroke:none;stroke-width:0.108944;stroke-linecap:round;stroke-dasharray:none;stroke-opacity:1"
       d="m 332.81939,163.72073 c -1.07501,-0.10221 -2.68207,-0.4235 -3.30811,-0.66138 -1.73344,-0.65866 -3.31728,-2.13196 -4.21268,-3.91868 -0.16428,-0.32782 -0.4123,-0.97637 -0.55115,-1.44123 -0.22869,-0.76566 -0.25973,-1.06672 -0.32985,-3.19921 -0.0426,-1.29471 -0.14445,-3.78084 -0.22641,-5.52473 -0.1766,-3.75759 -0.34603,-9.35857 -0.34603,-11.43904 l -0.0241,-1.99012 1.17451,-0.0602 c 0.57233,-0.0294 1.33831,0.0609 1.89428,0.0617 l 0.98486,-0.10745 0.143,3.72393 c 0.0631,1.64313 0.11116,3.57257 0.16058,4.28598 0.0494,0.71341 0.12935,3.1563 0.1776,5.42865 0.093,4.38135 0.18298,5.4059 0.62142,7.07771 0.25822,0.98463 0.48997,1.56202 1.14177,2.8447 l 0.40379,0.79461 7.68658,-0.0544 c 4.22762,-0.0299 12.48588,-0.0957 18.3517,-0.14608 5.86582,-0.0504 11.49744,-0.0916 12.51472,-0.0916 l 1.84958,2e-5 v 2.0546 2.05459 l -3.3869,0.0612 c -1.86279,0.0337 -8.35915,0.10255 -14.43636,0.15304 -6.0772,0.0505 -12.93026,0.11076 -15.22903,0.13393 -2.29877,0.0232 -4.57297,0.005 -5.05378,-0.041 z"
       id="path9145"
       transform="matrix(0.26458333,0,0,0.26458333,19.109726,77.530983)"
       sodipodi:nodetypes="ssssssscsscssssscssscccsssss" /><path
       style="fill:#3376f2;fill-opacity:1;stroke:none;stroke-width:0.187249;stroke-linecap:round;stroke-dasharray:none;stroke-opacity:1"
       d="m 135.66542,243.49814 v -2.21448 l 2.02301,-0.94282 c 11.39947,-5.31276 21.25788,-11.48514 31.0876,-19.464 3.26661,-2.65152 4.70802,-4.00915 6.39697,-6.02509 5.61193,-6.69847 9.26893,-15.69032 10.847,-26.67069 0.55928,-3.89152 0.93279,-9.85256 1.36588,-21.79894 0.2806,-7.74008 0.26725,-38.0069 -0.0239,-54.16708 -0.28119,-15.607335 -0.29204,-43.498032 -0.0195,-50.038497 0.10599,-2.54321 0.25791,-7.299344 0.3376,-10.569187 0.18649,-7.651443 0.55232,-10.044763 1.81617,-11.881706 0.6521,-0.947808 1.68648,-1.786501 2.90858,-2.358342 0.9352,-0.437594 1.08355,-0.456978 3.37281,-0.440694 4.75535,0.03383 10.69751,1.011302 28.95448,4.762973 3.34515,0.687405 6.40504,1.288592 6.79975,1.335973 0.3947,0.04738 1.15054,0.235449 1.67964,0.41793 2.98698,1.030176 4.7649,0.266116 5.40491,-2.322748 0.82928,-3.35447 3.20243,-6.15664 6.57337,-7.761702 2.04195,-0.972269 2.97323,-1.162844 6.48894,-1.327885 8.64383,-0.405776 19.0542,0.641521 27.33125,2.749562 20.71208,5.275053 38.24409,20.717459 45.16468,39.781592 1.23308,3.396721 2.20909,7.490764 2.47928,10.399602 0.85333,9.186886 0.93866,12.182395 1.14915,40.340749 l 0.0769,10.28019 h -2.03084 -2.03084 l -0.11124,-15.73073 c -0.14144,-19.999168 -0.44947,-30.319592 -1.03125,-34.553012 -1.89557,-13.7929 -10.4703,-27.303271 -23.10542,-36.404936 -2.33579,-1.682582 -6.53344,-4.220237 -9.16546,-5.540912 -7.2647,-3.645218 -14.92323,-5.769504 -24.40962,-6.770628 -5.57638,-0.58849 -14.76134,-0.706327 -17.12398,-0.21969 -2.70316,0.55677 -5.07119,2.41433 -5.85476,4.592656 -0.11435,0.317901 -0.26251,1.43262 -0.32924,2.477153 -0.13682,2.141737 -0.4193,2.904013 -1.39294,3.75888 -0.82372,0.723234 -2.001,0.929203 -4.64369,0.812429 -1.52434,-0.06736 -2.79333,-0.242225 -4.3763,-0.603055 -5.39538,-1.22985 -22.06359,-4.536319 -27.08354,-5.372557 -5.33353,-0.888473 -12.59353,-1.745856 -12.82481,-1.514569 -0.25959,0.259587 -0.81233,13.581111 -1.06672,25.708681 -0.19553,9.321502 -0.11189,32.83427 0.18328,51.52478 0.3307,20.94058 0.18268,47.07567 -0.33531,59.20396 -0.66392,15.54499 -3.9353,27.65261 -9.89228,36.61203 -2.52148,3.79239 -4.78984,6.26287 -8.84515,9.63338 -10.47341,8.70482 -23.19403,16.63803 -34.63886,21.60255 l -2.10558,0.91336 z"
       id="path13804"
       transform="matrix(0.26458333,0,0,0.26458333,19.109726,77.530983)" /><path
       style="fill:#3376f2;fill-opacity:1;stroke:none;stroke-width:0.0889428;stroke-linecap:round;stroke-dasharray:none;stroke-opacity:1"
       d=""
       id="path13806"
       transform="matrix(0.26458333,0,0,0.26458333,19.109726,77.530983)" /><path
       style="fill:#3376f2;fill-opacity:1;stroke:none;stroke-width:0.197984;stroke-linecap:round;stroke-dasharray:none;stroke-opacity:1"
       d="m 287.32182,461.48333 c -14.9638,-4.74057 -25.3028,-8.61873 -39.20009,-14.70396 -9.69983,-4.24727 -14.11484,-6.34631 -28.17919,-13.39727 -18.45728,-9.2533 -32.0807,-16.47312 -50.57021,-26.80001 -3.64937,-2.03826 -8.04955,-4.49338 -9.7782,-5.45581 -9.5723,-5.3294 -17.71214,-10.59064 -39.59035,-25.58947 -14.08477,-9.65596 -22.284287,-14.92579 -30.079298,-19.33197 -1.920717,-1.0857 -4.246531,-2.41815 -5.168477,-2.96101 -0.921945,-0.54285 -2.43451,-1.37096 -3.361255,-1.84025 l -2.154496,-1.04105 0.140852,-2.14387 -0.225363,-2.3974 2.169165,1.062 c 0.892209,0.43682 2.322322,1.22004 3.186644,1.72307 0.864323,0.50304 2.854304,1.59883 4.42218,2.43511 8.999077,4.79994 18.305708,10.74034 36.524018,23.31321 15.94051,11.00091 23.77642,16.09586 32.56488,21.17385 16.34691,9.44528 30.91297,17.36404 54.39122,29.56949 27.67899,14.38925 50.24657,24.20687 71.24114,30.99217 2.44892,0.79147 4.51411,1.49341 4.58933,1.55987 0.0752,0.0664 0.11449,1.02458 0.0873,2.12918 l -0.0494,2.00836 z"
       id="path13810"
       transform="matrix(0.26458333,0,0,0.26458333,19.109726,77.530983)"
       sodipodi:nodetypes="ssssssssscccssssssssscs" /><path
       style="fill:#3376f2;fill-opacity:1;stroke:none;stroke-width:0.197984;stroke-linecap:round;stroke-dasharray:none;stroke-opacity:1"
       d="m 77.660763,349.7123 c -3.283192,-1.38631 -10.182475,-3.66413 -14.481406,-4.78108 -4.009811,-1.04184 -6.761791,-3.49813 -7.142809,-6.37534 -0.227274,-1.71624 3.278975,-17.22624 7.615113,-33.68569 0.872851,-3.31324 1.982225,-7.63485 2.465276,-9.60359 2.654468,-10.81862 5.890807,-17.96675 10.751663,-23.74729 3.009062,-3.57838 8.810893,-8.07992 15.063905,-11.68782 2.719407,-1.56906 9.042955,-4.69498 12.397355,-6.12839 3.24489,-1.3866 9.50346,-3.8539 15.27843,-6.02318 4.99887,-1.87774 12.28979,-4.75074 14.53634,-5.72807 l 1.86998,-0.83641 -0.04,2.2897 c -0.0351,2.01064 0.5829,1.87435 0.25015,2.05243 -0.62145,0.3326 -8.18606,3.31523 -14.08466,5.54775 -17.5169,6.62986 -25.166805,10.16992 -32.898284,15.22396 -6.554366,4.28456 -11.214794,9.37664 -14.350447,15.67961 -1.247616,2.50783 -2.949009,7.45569 -4.413113,12.83388 -2.217992,8.1475 -6.078972,23.43272 -8.203692,32.47758 -2.608643,11.10489 -2.796565,11.95567 -2.669998,12.08775 0.207263,0.21631 3.908119,1.44233 9.104673,3.01621 6.271861,1.89956 10.41871,3.32755 10.87495,3.74487 0.07502,0.0686 0.114304,1.10276 0.08731,2.29809 l -0.04909,2.17333 z"
       id="path13812"
       transform="matrix(0.26458333,0,0,0.26458333,19.109726,77.530983)"
       sodipodi:nodetypes="sssssssssscssssssssssscs" /><path
       style="fill:#fab721;fill-opacity:1;stroke:none;stroke-width:0.991604;stroke-linecap:round;stroke-dasharray:none;stroke-opacity:1"
       d="m 377.80109,468.78769 c -33.66978,-0.30137 -62.2115,-0.50235 -62.33175,-0.60165 -0.12025,-0.0993 -0.0396,-1.71717 -0.0396,-2.68337 0,-0.55852 -0.16745,-1.63395 0.15854,-1.477 0.31134,0.1499 2.82444,0.52074 5.89951,0.53674 2.78575,0.0145 107.66422,1.04185 233.49052,1.07309 192.6808,0.0478 229.00346,-0.13255 230.22253,-1.14344 1.0878,-0.90203 1.44745,-2.68061 1.44745,-7.15803 0,-3.27677 0.3507,-6.88016 0.77932,-8.00754 0.42863,-1.12737 3.10534,-3.68138 5.94825,-5.67557 l 5.16891,-3.62579 1.1739,-91.23661 c 2.4648,-191.56543 2.45951,-190.22609 0.77868,-197.22947 -1.96307,-8.17937 -6.31989,-17.34633 -12.37829,-26.04454 -3.37598,-4.84698 -5.3884,-6.79882 -5.96015,-7.43473 -0.49078,-0.54586 3.14373,-2.86364 3.33419,-2.63664 0.53536,0.63805 1.78533,2.97271 5.48094,8.31858 5.13635,7.42998 11.58842,20.68608 13.05773,26.82771 1.20462,5.03522 1.25229,50.16328 0.1241,117.47059 -0.44356,26.46233 -1.06786,75.85195 -1.38734,109.75472 -0.47008,49.88371 -0.80924,62.00694 -1.7781,63.55786 -0.65847,1.05406 -3.01347,3.16608 -5.23332,4.69338 -4.73661,3.25887 -6.55589,6.92674 -5.89173,11.87838 0.54999,4.10053 -1.29985,8.42182 -4.31932,10.09006 -1.53576,0.84851 -39.1573,1.10581 -174.24295,1.19169 -94.75636,0.0602 -199.83229,-0.13705 -233.50206,-0.43842 z"
       id="path13814"
       transform="matrix(0.26458333,0,0,0.26458333,19.109726,77.530983)"
       sodipodi:nodetypes="sssssssssscssssssssssssssss" /><path
       style="fill:#ed3c3c;fill-opacity:1;stroke:none;stroke-width:0.0431727;stroke-linecap:round;stroke-dasharray:none;stroke-opacity:1"
       d="m 781.02483,116.55994 c -6.03024,-8.07924 -12.73921,-17.193277 -23.78893,-32.316948 -2.7082,-3.706691 -5.85097,-8.006145 -6.98395,-9.55434 -1.13297,-1.548195 -2.07365,-2.837541 -2.0904,-2.865213 -0.0251,-0.0415 0.42218,-0.05031 2.55506,-0.05031 h 2.58551 l 1.57453,2.160809 c 9.08931,12.473679 12.76335,17.498433 17.01758,23.273911 1.16464,1.581103 2.28731,3.114611 2.49481,3.407791 1.75616,2.48127 3.81087,5.23873 8.18538,10.98491 1.02831,1.35074 2.18986,2.87843 2.58123,3.39487 l 0.71157,0.93897 -1.74981,1.18376 c -0.96239,0.65107 -1.75938,1.18376 -1.7711,1.18376 -0.0117,0 -0.60638,-0.78389 -1.32148,-1.74197 z"
       id="path9137"
       transform="matrix(0.26458333,0,0,0.26458333,19.109726,77.530983)" /><path
       style="fill:#3376f2;fill-opacity:1;stroke:none;stroke-width:2;stroke-linecap:round;stroke-dasharray:none;stroke-opacity:1"
       id="path19976"
       sodipodi:type="arc"
       sodipodi:cx="70.061905"
       sodipodi:cy="88.319283"
       sodipodi:rx="0.16208941"
       sodipodi:ry="0.15897229"
       sodipodi:start="2.1830241"
       sodipodi:end="5.7491958"
       sodipodi:arc-type="slice"
       d="m 69.968753,88.449381 a 0.16208941,0.15897229 0 0 1 -0.06466,-0.166365 0.16208941,0.15897229 0 0 1 0.133285,-0.120875 0.16208941,0.15897229 0 0 1 0.164054,0.07623 l -0.139524,0.08091 z" /><path
       style="fill:#3376f2;fill-opacity:1;stroke:none;stroke-width:0.0113651;stroke-linecap:round;stroke-dasharray:none;stroke-opacity:1"
       d="m 315.18969,468.16542 c -1.14821,-0.13956 -1.95713,-0.24455 -2.11994,-0.27516 -4.80579,-0.90353 -8.98822,-1.81723 -13.64681,-2.98131 -3.58834,-0.89665 -6.80624,-1.65441 -10.66961,-2.95752 l -1.08727,-0.36673 0.35739,-1.91749 c 0.28164,-1.51109 -1.52314,-2.63226 -1.51544,-2.63226 0.006,0 2.13823,0.56639 2.31841,0.62109 6.54168,1.98747 13.51055,3.80822 19.83305,5.18176 1.75393,0.38103 4.46799,0.83945 6.60289,1.11525 l 0.34206,0.0678 -0.0285,2.07678 -0.0459,2.09372 -0.11744,-10e-4 c -0.0152,-1.3e-4 -0.11551,-0.0118 -0.22302,-0.0248 z m 0.25551,-8.43882 c 0,-1.2018 10e-4,-1.69493 0.003,-1.09585 0.001,0.59908 0.001,1.58237 0,2.18509 -10e-4,0.60272 -0.003,0.11257 -0.003,-1.08924 z"
       id="path13808"
       transform="matrix(0.26458333,0,0,0.26458333,19.109726,77.530983)"
       sodipodi:nodetypes="cssscsscsscccsccscss" /><circle
       style="fill:#ffffff;fill-opacity:1;stroke:#374151;stroke-width:0.5;stroke-linecap:round;stroke-dasharray:none;stroke-opacity:1"
       id="path23279"
       cx="226.65575"
       cy="108.53918"
       r="1" /></g></svg>
